<svg width="91" height="107" viewBox="0 0 91 107" fill="none" xmlns="http://www.w3.org/2000/svg">
<path d="M90.8518 46.0847C90.8518 20.3145 69.5498 -0.604837 43.7474 0.607877C20.6452 1.82059 1.7434 20.9208 0.843319 44.2656C-0.0567653 63.0627 10.4442 79.1311 25.7457 87.0138C32.3463 90.3487 38.0468 95.5027 42.2472 101.566L45.8476 106.72L49.4479 101.566C53.3483 95.5027 58.7488 90.3487 65.3494 87.3169C80.3508 79.7375 90.8518 64.2754 90.8518 46.0847Z" fill="#0791F8"/>
<path fill-rule="evenodd" clip-rule="evenodd" d="M48.9447 22.461C49.5556 22.729 49.9185 23.3718 49.8359 24.0396L47.5465 42.5476H68.3492C68.9313 42.5476 69.4609 42.8878 69.7077 43.4205C69.9546 43.9531 69.8743 44.582 69.5017 45.0339L44.4993 75.3517C44.073 75.8687 43.3604 76.0398 42.7495 75.7718C42.1387 75.5039 41.7757 74.861 41.8583 74.1933L44.1478 55.6853H23.345C22.7629 55.6853 22.2334 55.345 21.9865 54.8124C21.7396 54.2797 21.8199 53.6508 22.1926 53.1989L47.1949 22.8811C47.6212 22.3641 48.3338 22.1931 48.9447 22.461ZM26.5479 52.6535H45.8471C46.2774 52.6535 46.687 52.8402 46.9717 53.1662C47.2565 53.4921 47.389 53.926 47.3357 54.3574L45.4701 69.4388L65.1464 45.5793H45.8471C45.4168 45.5793 45.0073 45.3926 44.7225 45.0667C44.4377 44.7407 44.3052 44.3069 44.3586 43.8754L46.2241 28.794L26.5479 52.6535Z" fill="#D6EDFF"/>
<path d="M24.8451 53.2982L48.1807 24.8621L45.0693 43.2619H66.8491L43.5136 73.3707L45.0693 53.2982H24.8451Z" fill="#D6EDFF"/>
</svg>
