<svg width="534" height="456" viewBox="0 0 534 456" fill="none" xmlns="http://www.w3.org/2000/svg">
<path d="M332.71 152.323L329.427 141.472C325.674 128.824 314.026 120.237 300.815 120.237H234.209C220.997 120.237 209.427 128.903 205.596 141.472L202.469 152.011C187.382 154.822 176.046 168.015 176.046 183.863V200.024V207.596V218.526C176.046 224.615 180.971 229.612 187.147 229.612H191.603C197.701 229.612 202.626 224.693 202.704 218.682H330.912C330.99 224.693 335.915 229.612 342.013 229.612H346.469C352.567 229.612 357.57 224.693 357.57 218.526V207.596V200.024V183.785C357.492 168.562 346.938 155.758 332.71 152.323ZM232.802 187.298H196.059C192.385 187.298 189.414 184.332 189.414 180.662C189.414 176.993 192.385 174.027 196.059 174.027H232.802C236.476 174.027 239.447 176.993 239.447 180.662C239.447 184.332 236.476 187.298 232.802 187.298ZM337.557 187.298H300.815C297.14 187.298 294.17 184.332 294.17 180.662C294.17 176.993 297.14 174.027 300.815 174.027H337.557C341.231 174.027 344.202 176.993 344.202 180.662C344.202 184.332 341.231 187.298 337.557 187.298Z" fill="white"/>
<path fill-rule="evenodd" clip-rule="evenodd" d="M262.214 7.79166C262.214 5.14226 264.362 2.99451 267.011 2.99451C270.979 2.99451 274.922 3.16693 278.743 3.42167L278.744 3.42171C368.553 9.42052 439.506 84.1432 439.506 175.491C439.506 269.922 363.67 346.616 269.58 347.987L269.58 347.987C174.717 349.358 96.0604 273.19 94.5178 178.318C93.4038 109.759 132.317 50.206 189.374 21.42L189.382 21.4161L189.746 21.2344L189.768 21.2234C209.095 11.812 229.669 6.4451 245.776 13.6801C262.469 21.1783 271.808 40.8352 271.808 74.9118V141.112C271.808 143.762 269.661 145.91 267.011 145.91C264.362 145.91 262.214 143.762 262.214 141.112V74.9118C262.214 41.8683 253.143 27.5069 241.845 22.4321C229.966 17.0963 212.977 20.5968 193.991 29.8382L193.696 29.9859C193.693 29.9872 193.691 29.9886 193.688 29.9899C139.785 57.1886 103.059 113.432 104.111 178.162C105.567 267.735 179.862 339.689 269.441 338.394C358.293 337.099 429.911 264.671 429.911 175.491C429.911 89.2259 362.907 18.659 278.105 12.9947C274.429 12.7496 270.708 12.5888 267.011 12.5888C264.362 12.5888 262.214 10.441 262.214 7.79166Z" fill="white"/>
<path d="M95.3062 440.98C91.0662 440.98 87.3862 440.1 84.2662 438.34C81.1462 436.54 78.7462 434 77.0662 430.72C75.4262 427.44 74.6062 423.56 74.6062 419.08C74.6062 414.64 75.4262 410.8 77.0662 407.56C78.7462 404.28 81.1462 401.76 84.2662 400C87.3862 398.2 91.0662 397.3 95.3062 397.3C98.1862 397.3 100.886 397.74 103.406 398.62C105.966 399.46 108.086 400.7 109.766 402.34L107.246 407.98C105.286 406.42 103.366 405.3 101.486 404.62C99.6062 403.9 97.5862 403.54 95.4262 403.54C91.3062 403.54 88.1062 404.88 85.8262 407.56C83.5862 410.2 82.4662 414.04 82.4662 419.08C82.4662 424.12 83.5862 428 85.8262 430.72C88.1062 433.4 91.3062 434.74 95.4262 434.74C97.5862 434.74 99.6062 434.4 101.486 433.72C103.366 433 105.286 431.86 107.246 430.3L109.766 435.94C108.086 437.58 105.966 438.84 103.406 439.72C100.886 440.56 98.1862 440.98 95.3062 440.98ZM145.322 440.5V397.78H152.882V440.5H145.322ZM115.742 440.5V397.78H123.362V440.5H115.742ZM118.502 421.9V415.72H149.762V421.9H118.502ZM164.187 440.5H156.387L175.707 397.78H182.007L201.327 440.5H193.647L177.927 403.78H180.027L164.187 440.5ZM164.907 430.48L167.847 424.48H189.627L192.447 430.48H164.907ZM204.748 440.5V397.78H223.048C227.888 397.78 231.568 398.84 234.088 400.96C236.608 403.08 237.868 406.12 237.868 410.08C237.868 413.84 236.568 416.84 233.968 419.08C231.368 421.28 227.748 422.38 223.108 422.38L227.908 421.42C229.388 421.42 230.708 421.86 231.868 422.74C233.028 423.62 233.948 424.98 234.628 426.82L239.908 440.5H231.748L226.348 426.28C225.788 424.88 224.988 423.94 223.948 423.46C222.948 422.98 221.688 422.74 220.168 422.74H212.368V440.5H204.748ZM212.308 416.74H221.968C224.928 416.74 227.088 416.2 228.448 415.12C229.808 414.04 230.488 412.42 230.488 410.26C230.488 408.06 229.808 406.44 228.448 405.4C227.088 404.36 224.928 403.84 221.968 403.84H212.308V416.74ZM265.484 440.98C261.044 440.98 257.204 440.12 253.964 438.4C250.764 436.64 248.304 434.14 246.584 430.9C244.904 427.62 244.064 423.68 244.064 419.08C244.064 414.56 244.904 410.68 246.584 407.44C248.304 404.16 250.744 401.66 253.904 399.94C257.064 398.18 260.804 397.3 265.124 397.3C268.124 397.3 270.924 397.72 273.524 398.56C276.124 399.4 278.324 400.64 280.124 402.28L277.484 407.92C275.444 406.36 273.464 405.24 271.544 404.56C269.624 403.84 267.524 403.48 265.244 403.48C260.884 403.48 257.564 404.8 255.284 407.44C253.044 410.08 251.924 413.96 251.924 419.08C251.924 424.32 253.084 428.28 255.404 430.96C257.724 433.6 261.184 434.92 265.784 434.92C267.544 434.92 269.264 434.78 270.944 434.5C272.664 434.18 274.284 433.74 275.804 433.18L274.004 436.06V422.98H264.824V417.4H281.024V437.92C279.704 438.6 278.204 439.16 276.524 439.6C274.844 440.04 273.064 440.38 271.184 440.62C269.304 440.86 267.404 440.98 265.484 440.98ZM288.598 440.5V397.78H306.898C311.738 397.78 315.418 398.84 317.938 400.96C320.458 403.08 321.718 406.12 321.718 410.08C321.718 413.84 320.418 416.84 317.818 419.08C315.218 421.28 311.598 422.38 306.958 422.38L311.758 421.42C313.238 421.42 314.558 421.86 315.718 422.74C316.878 423.62 317.798 424.98 318.478 426.82L323.758 440.5H315.598L310.198 426.28C309.638 424.88 308.838 423.94 307.798 423.46C306.798 422.98 305.538 422.74 304.018 422.74H296.218V440.5H288.598ZM296.158 416.74H305.818C308.778 416.74 310.938 416.2 312.298 415.12C313.658 414.04 314.338 412.42 314.338 410.26C314.338 408.06 313.658 406.44 312.298 405.4C310.938 404.36 308.778 403.84 305.818 403.84H296.158V416.74ZM328.383 432.1H336.843V440.5H328.383V432.1ZM360.471 440.98C356.311 440.98 352.711 440.1 349.671 438.34C346.631 436.58 344.291 434.06 342.651 430.78C341.011 427.5 340.191 423.62 340.191 419.14C340.191 414.62 341.011 410.74 342.651 407.5C344.291 404.22 346.631 401.7 349.671 399.94C352.711 398.18 356.311 397.3 360.471 397.3C364.671 397.3 368.291 398.18 371.331 399.94C374.371 401.7 376.711 404.22 378.351 407.5C379.991 410.74 380.811 414.6 380.811 419.08C380.811 423.6 379.971 427.5 378.291 430.78C376.651 434.06 374.311 436.58 371.271 438.34C368.271 440.1 364.671 440.98 360.471 440.98ZM360.471 434.86C364.391 434.86 367.471 433.52 369.711 430.84C371.951 428.12 373.071 424.2 373.071 419.08C373.071 413.96 371.951 410.08 369.711 407.44C367.471 404.76 364.391 403.42 360.471 403.42C356.591 403.42 353.531 404.76 351.291 407.44C349.051 410.08 347.931 413.96 347.931 419.08C347.931 424.2 349.051 428.12 351.291 430.84C353.531 433.52 356.591 434.86 360.471 434.86ZM387.537 440.5V397.78H393.297L417.897 429.76L416.277 430.6V397.78H423.537V440.5H417.717L393.237 408.64L394.797 407.68V440.5H387.537ZM431.63 440.5V397.78H460.19V403.84H439.19V415.72H458.99V421.84H439.19V434.44H460.19V440.5H431.63Z" fill="white"/>
</svg>
