<svg width="25" height="25" viewBox="0 0 25 25" fill="none" xmlns="http://www.w3.org/2000/svg">
<path fill-rule="evenodd" clip-rule="evenodd" d="M4.5 4.875C3.60711 4.875 2.875 5.60711 2.875 6.5V18.5C2.875 19.3929 3.60711 20.125 4.5 20.125H20.5C21.3929 20.125 22.125 19.3929 22.125 18.5V6.5C22.125 5.60711 21.3929 4.875 20.5 4.875H4.5ZM2.125 6.5C2.125 5.19289 3.19289 4.125 4.5 4.125H20.5C21.8071 4.125 22.875 5.19289 22.875 6.5V18.5C22.875 19.8071 21.8071 20.875 20.5 20.875H4.5C3.19289 20.875 2.125 19.8071 2.125 18.5V6.5Z" fill="#0E2C4B"/>
<path fill-rule="evenodd" clip-rule="evenodd" d="M2.19282 6.28495C2.31159 6.11528 2.54541 6.07402 2.71508 6.19279L12.5 13.0423L22.285 6.19279C22.4547 6.07402 22.6885 6.11528 22.8072 6.28495C22.926 6.45462 22.8847 6.68845 22.7151 6.80721L12.7151 13.8072C12.586 13.8976 12.4141 13.8976 12.285 13.8072L2.28498 6.80721C2.11532 6.68845 2.07405 6.45462 2.19282 6.28495Z" fill="#0E2C4B"/>
</svg>
